<mxfile host="app.diagrams.net" agent="Mozilla/5.0 (Windows NT 10.0; Win64; x64) AppleWebKit/537.36 (KHTML, like Gecko) Chrome/130.0.0.0 Safari/537.36" version="24.8.4">
  <diagram name="Page-1" id="ObeaynChLW5vUpgl5uhH">
    <mxGraphModel dx="1050" dy="1622" grid="1" gridSize="10" guides="1" tooltips="1" connect="1" arrows="1" fold="1" page="1" pageScale="1" pageWidth="850" pageHeight="1100" math="0" shadow="0">
      <root>
        <mxCell id="0" />
        <mxCell id="1" parent="0" />
        <mxCell id="8BQJwPdIsNm_uAwqSkSa-15" value="" style="edgeStyle=orthogonalEdgeStyle;rounded=0;orthogonalLoop=1;jettySize=auto;html=1;" edge="1" parent="1" source="8BQJwPdIsNm_uAwqSkSa-1" target="8BQJwPdIsNm_uAwqSkSa-3">
          <mxGeometry relative="1" as="geometry" />
        </mxCell>
        <mxCell id="8BQJwPdIsNm_uAwqSkSa-1" value="" style="ellipse;whiteSpace=wrap;html=1;aspect=fixed;fillColor=#000000;" vertex="1" parent="1">
          <mxGeometry x="70" y="70" width="20" height="20" as="geometry" />
        </mxCell>
        <mxCell id="8BQJwPdIsNm_uAwqSkSa-2" value="" style="ellipse;html=1;shape=endState;fillColor=#000000;strokeColor=#ff0000;" vertex="1" parent="1">
          <mxGeometry x="525" y="310" width="30" height="30" as="geometry" />
        </mxCell>
        <mxCell id="8BQJwPdIsNm_uAwqSkSa-14" value="" style="edgeStyle=orthogonalEdgeStyle;rounded=0;orthogonalLoop=1;jettySize=auto;html=1;" edge="1" parent="1" source="8BQJwPdIsNm_uAwqSkSa-3" target="8BQJwPdIsNm_uAwqSkSa-5">
          <mxGeometry relative="1" as="geometry" />
        </mxCell>
        <mxCell id="8BQJwPdIsNm_uAwqSkSa-3" value="customer put goods at cash counter" style="rounded=1;whiteSpace=wrap;html=1;" vertex="1" parent="1">
          <mxGeometry x="140" y="50" width="120" height="60" as="geometry" />
        </mxCell>
        <mxCell id="8BQJwPdIsNm_uAwqSkSa-13" value="" style="edgeStyle=orthogonalEdgeStyle;rounded=0;orthogonalLoop=1;jettySize=auto;html=1;" edge="1" parent="1" source="8BQJwPdIsNm_uAwqSkSa-5" target="8BQJwPdIsNm_uAwqSkSa-6">
          <mxGeometry relative="1" as="geometry" />
        </mxCell>
        <mxCell id="8BQJwPdIsNm_uAwqSkSa-5" value="cashier enters item ID and quantity" style="rounded=1;whiteSpace=wrap;html=1;" vertex="1" parent="1">
          <mxGeometry x="310" y="50" width="120" height="60" as="geometry" />
        </mxCell>
        <mxCell id="8BQJwPdIsNm_uAwqSkSa-12" value="" style="edgeStyle=orthogonalEdgeStyle;rounded=0;orthogonalLoop=1;jettySize=auto;html=1;" edge="1" parent="1" source="8BQJwPdIsNm_uAwqSkSa-6" target="8BQJwPdIsNm_uAwqSkSa-7">
          <mxGeometry relative="1" as="geometry" />
        </mxCell>
        <mxCell id="8BQJwPdIsNm_uAwqSkSa-6" value="system returns item description and total price" style="rounded=1;whiteSpace=wrap;html=1;" vertex="1" parent="1">
          <mxGeometry x="480" y="50" width="120" height="60" as="geometry" />
        </mxCell>
        <mxCell id="8BQJwPdIsNm_uAwqSkSa-7" value="" style="rhombus;whiteSpace=wrap;html=1;" vertex="1" parent="1">
          <mxGeometry x="485" y="160" width="110" height="50" as="geometry" />
        </mxCell>
        <mxCell id="8BQJwPdIsNm_uAwqSkSa-8" value="" style="endArrow=classic;html=1;rounded=0;exitX=0.5;exitY=1;exitDx=0;exitDy=0;entryX=0.5;entryY=0;entryDx=0;entryDy=0;" edge="1" parent="1" source="8BQJwPdIsNm_uAwqSkSa-7" target="8BQJwPdIsNm_uAwqSkSa-2">
          <mxGeometry width="50" height="50" relative="1" as="geometry">
            <mxPoint x="300" y="370" as="sourcePoint" />
            <mxPoint x="350" y="320" as="targetPoint" />
          </mxGeometry>
        </mxCell>
        <mxCell id="8BQJwPdIsNm_uAwqSkSa-9" value="[all items are scanned and recorded as sale]" style="text;html=1;align=center;verticalAlign=middle;resizable=0;points=[];autosize=1;strokeColor=none;fillColor=none;" vertex="1" parent="1">
          <mxGeometry x="410" y="238" width="260" height="30" as="geometry" />
        </mxCell>
        <mxCell id="8BQJwPdIsNm_uAwqSkSa-10" value="[not all items are scanned and recorded as sale]" style="text;html=1;align=center;verticalAlign=middle;resizable=0;points=[];autosize=1;strokeColor=none;fillColor=none;" vertex="1" parent="1">
          <mxGeometry x="580" y="130" width="280" height="30" as="geometry" />
        </mxCell>
        <mxCell id="8BQJwPdIsNm_uAwqSkSa-11" value="" style="endArrow=classic;html=1;rounded=0;exitX=1;exitY=0.5;exitDx=0;exitDy=0;entryX=0.5;entryY=0;entryDx=0;entryDy=0;edgeStyle=orthogonalEdgeStyle;" edge="1" parent="1" source="8BQJwPdIsNm_uAwqSkSa-7" target="8BQJwPdIsNm_uAwqSkSa-5">
          <mxGeometry width="50" height="50" relative="1" as="geometry">
            <mxPoint x="370" y="230" as="sourcePoint" />
            <mxPoint x="420" y="180" as="targetPoint" />
            <Array as="points">
              <mxPoint x="730" y="185" />
              <mxPoint x="730" />
              <mxPoint x="370" />
            </Array>
          </mxGeometry>
        </mxCell>
      </root>
    </mxGraphModel>
  </diagram>
</mxfile>
